# xmcd CD database file
#
# Track frame offsets:
#	150
#	12475
#	24725
#	37977
#	49892
#	63452
#	76122
#	88057
#	102265
#	113837
#	125690
#	139142
#	150735
#	163140
#	175272
#	185152
#	196545
#	207810
#	219660
#
# Disc length: 3083 seconds
#
# Revision: 2
# Processed by: cddbd v1.4PL0 Copyright (c) Steve Scherf et al.
# Submitted via: CDex 1.50
#
DISCID=0b0c0913
DTITLE=Howlin' Wolf - Memphis Days - The Definitive Edition Vol 2
DYEAR=1990
DGENRE=Blues
TTITLE0=Baby Ride With Me
TTITLE1=How Many More Years
TTITLE2=Moanin' At Midnight
TTITLE3=Howlin' Wolf Boogie
TTITLE4=The Wolf Is At Your Door
TTITLE5=Mr Highway Man
TTITLE6=Getting Old And Grey
TTITLE7=Worried All The Time
TTITLE8=Saddle My Pony
TTITLE9=Oh, Red!
TTITLE10=My Last Affair
TTITLE11=Come Back Home (Take 2)
TTITLE12=Dorothy Mae
TTITLE13=Oh Red (Take 2)
TTITLE14=Come Back Home (Take 3)
TTITLE15=How Many More Years (2)
TTITLE16=How Many More Years (3)
TTITLE17=Baby Ride With Me (2)
TTITLE18=Baby Ride With Me (3)
EXTD=Bear Family Records BCD 15500 YEAR: 1990
EXTT0=
EXTT1=
EXTT2=
EXTT3=
EXTT4=
EXTT5=
EXTT6=
EXTT7=
EXTT8=
EXTT9=
EXTT10=
EXTT11=
EXTT12=
EXTT13=
EXTT14=
EXTT15=
EXTT16=
EXTT17=
EXTT18=
PLAYORDER=
